<svg width="37" height="33" viewBox="0 0 37 33" fill="none" xmlns="http://www.w3.org/2000/svg">
<path d="M25.905 10.1062H20.6387C19.6487 10.1062 18.7275 9.58367 18.2188 8.73117L17.325 7.23242C16.8163 6.37992 15.895 5.85742 14.905 5.85742H6.61375C5.04625 5.85742 3.78125 7.12242 3.78125 8.68992V12.9249L3.78125 13.3784C3.78125 13.5356 3.78125 13.2412 3.78125 13.4062V23.7874C3.78125 25.6161 5.26625 27.1011 7.09501 27.1011H25.905C27.7337 27.1011 29.2188 25.6161 29.2188 23.7874V13.4062C29.2188 11.5912 27.7337 10.1062 25.905 10.1062Z" stroke="#007BFE" stroke-width="3" stroke-linecap="round" stroke-linejoin="round"/>
<path d="M25.905 10.1062H3.78125V23.815C3.78125 25.6437 5.26625 27.1287 7.09501 27.1287H25.905C27.7337 27.1287 29.2188 25.6437 29.2188 23.815V13.4337C29.2188 11.5912 27.7337 10.1062 25.905 10.1062Z" stroke="#007BFE" stroke-width="3" stroke-linecap="round" stroke-linejoin="round"/>
<circle cx="31" cy="25" r="5.5" fill="#007BFF" stroke="#CBE4FE"/>
<path d="M30.9829 22.526L31.0197 27.4737" stroke="white" stroke-width="1.5" stroke-linecap="round" stroke-linejoin="round"/>
<path d="M28.5275 24.9814L33.4751 25.0183" stroke="white" stroke-width="1.5" stroke-linecap="round" stroke-linejoin="round"/>
</svg>
